<svg width="52" height="40" viewBox="0 0 52 40" fill="none" xmlns="http://www.w3.org/2000/svg">
<path d="M26.7792 26.1849L26.7451 26.1589L26.6527 26.089L26.6267 26.1034L26.6204 26.2288V26.2774L26.614 26.401C26.6383 26.386 26.6643 26.3715 26.6885 26.3588L26.8283 26.2207L26.7792 26.1849Z" fill="black"/>
<path d="M26.6527 26.089L26.6285 26.071V26.1034L26.6221 26.2288C26.6643 26.2063 26.7047 26.1814 26.7469 26.1589L26.6527 26.089ZM26.6527 26.089L26.6285 26.071V26.1034L26.6221 26.2288C26.6643 26.2063 26.7047 26.1814 26.7469 26.1589L26.6527 26.089ZM26.7792 26.1849L26.6187 26.2773L26.6123 26.401V26.4333L26.6885 26.3588L26.8283 26.2207L26.7792 26.1849ZM26.6527 26.089L26.6285 26.071V26.1034L26.6221 26.2288C26.6643 26.2063 26.7047 26.1814 26.7469 26.1589L26.6527 26.089Z" fill="black"/>
<path d="M51.8714 15.6515C51.3182 12.7226 48.5221 10.8863 45.3668 11.3798C43.9387 11.604 42.6527 12.2956 41.4042 12.9641C41.0115 13.175 40.6056 13.3928 40.2048 13.591C36.9421 15.2014 33.0719 14.4774 29.5851 11.6068C28.1293 10.4085 26.9172 8.93449 25.7449 7.50905C24.5727 6.0836 23.3629 4.62002 21.9025 3.40143C18.8066 0.823267 15.3355 -0.279184 12.1276 0.295731C7.80295 1.06999 3.62785 4.58651 1.48312 9.25575C-0.590571 13.7759 -0.485471 18.6162 1.77186 22.5401C3.94603 26.3178 8.18178 29.0259 13.1007 29.784C13.8949 29.9057 14.6972 29.9667 15.5006 29.9666C17.7528 29.9666 20.0291 29.4957 22.4666 28.5279C25.4325 27.3509 28.2991 25.5666 30.8226 23.9904C32.7231 22.8064 34.3146 22.2159 35.8322 22.1316C37.1026 22.0616 38.3338 22.5031 39.528 22.9318C40.091 23.1329 40.672 23.3426 41.2564 23.4969C44.2592 24.2937 47.8505 23.4547 49.9975 21.4561C51.1536 20.3854 52.4102 18.5087 51.8714 15.6515ZM22.298 28.1009C19.0833 29.3767 16.0977 29.7765 13.1705 29.3264C8.38851 28.5891 4.2775 25.967 2.17262 22.3095C-0.00963581 18.5185 -0.10896 13.8314 1.90294 9.44932C3.98472 4.91297 8.0299 1.50045 12.2085 0.750464C12.7377 0.656422 13.2741 0.609053 13.8115 0.608902C16.4384 0.608902 19.1335 1.69864 21.6074 3.75678C23.0349 4.94533 24.2308 6.39851 25.3881 7.80431C26.5753 9.24882 27.8025 10.7384 29.2918 11.9645C32.9246 14.957 36.9767 15.7006 40.4098 14.007C40.814 13.806 41.2246 13.5864 41.6225 13.3715C42.8352 12.7208 44.0871 12.0483 45.4372 11.8374C48.3367 11.3815 50.9105 13.0583 51.4169 15.737C51.9182 18.3868 50.7511 20.1283 49.6845 21.1192C47.6466 23.0139 44.2309 23.8095 41.3771 23.0514C40.814 22.9018 40.2412 22.6961 39.6862 22.4979C38.4516 22.0547 37.1742 21.5965 35.8068 21.6716C34.2101 21.7589 32.5481 22.3713 30.5784 23.6003C28.0693 25.165 25.2252 26.9383 22.298 28.1009ZM26.6111 26.4333V26.401L26.6175 26.2773V26.2288L26.6239 26.1034V26.071L26.6481 26.0889L26.7405 26.1589L26.7746 26.1849L26.8219 26.2207L26.6822 26.3588L26.6111 26.4333Z" fill="black"/>
<path d="M26.8266 26.2207L26.6868 26.3588L26.6106 26.4333L26.6123 26.401L26.6187 26.2773L26.6204 26.2288L26.6268 26.1034L26.6285 26.071L26.6527 26.089L26.7457 26.1589L26.7792 26.1849L26.8266 26.2207Z" fill="black"/>
<path d="M42.9493 35.4348L42.9293 35.4266V35.4113C42.9357 35.4201 42.9428 35.4266 42.9493 35.4348Z" fill="black"/>
<path d="M46.4715 35.22C46.4514 35.2013 46.4276 35.187 46.4016 35.1781C46.3757 35.1691 46.3481 35.1657 46.3208 35.168C46.2932 35.1671 46.2658 35.1718 46.2402 35.1817C46.2145 35.1917 46.191 35.2066 46.1712 35.2257C46.1391 35.2625 46.1229 35.3105 46.1262 35.3592C46.1262 35.3846 46.1262 35.4095 46.1262 35.4355V36.1011V39.0832L43.1776 35.3442C43.1516 35.3101 43.1256 35.276 43.0968 35.2436C43.0621 35.2075 43.0178 35.1822 42.9692 35.1707C42.9205 35.1593 42.8695 35.1621 42.8225 35.1789C42.7687 35.1899 42.6827 35.2321 42.6954 35.3817C42.6929 35.4083 42.6929 35.435 42.6954 35.4615V39.5835C42.6966 39.6062 42.6966 39.629 42.6954 39.6517C42.6937 39.6767 42.697 39.7017 42.705 39.7254C42.713 39.7491 42.7257 39.771 42.7422 39.7898C42.7618 39.8088 42.7849 39.8236 42.8103 39.8336C42.8357 39.8435 42.8628 39.8482 42.89 39.8476C42.9174 39.8497 42.9448 39.8461 42.9708 39.8372C42.9967 39.8282 43.0205 39.8141 43.0407 39.7956C43.0577 39.7781 43.0708 39.7572 43.0792 39.7343C43.0875 39.7114 43.091 39.687 43.0892 39.6627C43.0892 39.6367 43.0892 39.6124 43.0892 39.5882V35.8804C43.9558 36.9767 44.822 38.0732 45.6879 39.1698L46.1498 39.7592C46.1707 39.7864 46.1976 39.8085 46.2283 39.8237C46.259 39.8389 46.2928 39.8469 46.3271 39.847C46.3534 39.8466 46.3795 39.8424 46.4045 39.8343C46.4622 39.8164 46.5235 39.769 46.5165 39.6379C46.5165 39.6147 46.5165 39.5939 46.5165 39.5726V35.4245C46.5148 35.4024 46.5148 35.3802 46.5165 35.358C46.5189 35.3332 46.5161 35.3081 46.5083 35.2843C46.5006 35.2606 46.488 35.2387 46.4715 35.22ZM42.9293 35.4147V35.4112C42.9356 35.4199 42.9426 35.4262 42.9489 35.4343L42.9293 35.4262V35.4147Z" fill="black"/>
<path d="M36.7198 39.616C36.7047 39.579 36.6886 39.5415 36.6724 39.5056L34.9787 35.8366C34.899 35.6644 34.8195 35.4922 34.7402 35.32C34.7152 35.2595 34.6676 35.2112 34.6076 35.1852C34.5475 35.1592 34.4797 35.1576 34.4185 35.1808C34.3832 35.1943 34.3517 35.2162 34.3268 35.2447C34.302 35.2732 34.2845 35.3074 34.2759 35.3443C34.2724 35.3512 34.2713 35.3593 34.2678 35.3674C33.6268 36.7541 32.9881 38.1409 32.3518 39.5276L32.3402 39.5467C32.3065 39.6011 32.2911 39.6649 32.2963 39.7287L32.3062 39.813L32.3887 39.8309C32.4254 39.8398 32.463 39.8446 32.5008 39.8454C32.6163 39.8454 32.6677 39.7876 32.7087 39.6928L32.9096 39.2514C33.0378 38.9752 33.1643 38.6996 33.2879 38.4217C33.3075 38.3778 33.3167 38.3731 33.3658 38.3731C34.109 38.3731 34.8811 38.3731 35.6601 38.3731C35.7121 38.3731 35.7219 38.3778 35.7398 38.4217C35.8905 38.7562 36.0447 39.089 36.1989 39.4219L36.3144 39.6686C36.3958 39.8419 36.4541 39.8587 36.6522 39.8292L36.8029 39.8067L36.7198 39.616ZM35.5365 37.9912H33.4923C33.6986 37.5328 33.9057 37.0765 34.1136 36.6224C34.2453 36.3366 34.3768 36.0498 34.508 35.762L35.5365 37.9912Z" fill="black"/>
<path d="M26.9242 39.5368C26.918 39.5275 26.9124 39.5179 26.9075 39.5079C26.4678 38.5545 26.0287 37.603 25.5903 36.6535L25.283 35.9896C25.1826 35.7718 25.0821 35.5545 24.9845 35.3367C24.9667 35.2817 24.9302 35.2346 24.8814 35.2036C24.8326 35.1726 24.7745 35.1596 24.7171 35.1668C24.6708 35.1694 24.6266 35.1865 24.5905 35.2156C24.5544 35.2447 24.5284 35.2845 24.5162 35.3292L24.5081 35.3488C23.8607 36.7546 23.2128 38.1593 22.5608 39.5766C22.541 39.6058 22.5298 39.6401 22.5287 39.6754C22.5276 39.7107 22.5365 39.7456 22.5545 39.776L22.5868 39.8245L22.6446 39.8314C22.8178 39.8476 22.8756 39.8314 22.9495 39.6691L23.0569 39.438C23.2109 39.1032 23.3628 38.7681 23.5125 38.4326C23.5385 38.3748 23.5518 38.3713 23.613 38.3679C24.3175 38.3725 25.0567 38.3725 25.8767 38.3679C25.9419 38.3679 25.9564 38.3777 25.9789 38.4297C26.1186 38.7429 26.263 39.0549 26.4074 39.3646L26.5454 39.6633C26.6083 39.7968 26.6574 39.8366 26.7643 39.8366C26.8002 39.8358 26.836 39.8331 26.8717 39.8285L26.9669 39.817L26.9739 39.7199C26.9743 39.6555 26.9571 39.5921 26.9242 39.5368ZM25.7641 37.99H23.7239C23.9416 37.5058 24.1604 37.0268 24.3799 36.5455C24.4983 36.2889 24.6166 36.0312 24.7333 35.7747C24.9816 36.2647 25.5718 37.5358 25.7641 37.99Z" fill="black"/>
<path d="M7.95082 36.3305C7.91328 35.8683 7.68287 35.5366 7.26247 35.3483C7.0497 35.2576 6.8233 35.2031 6.59261 35.1871C6.30387 35.1616 6.01514 35.1645 5.73737 35.1663C5.59763 35.1663 5.46019 35.1697 5.32217 35.1663H5.26847C5.24595 35.1663 5.22285 35.1663 5.20206 35.1663C5.17318 35.163 5.14393 35.1661 5.11639 35.1754C5.08884 35.1846 5.06368 35.1999 5.04268 35.22C5.02389 35.24 5.00967 35.2638 5.00099 35.2899C4.99232 35.3159 4.9894 35.3435 4.99244 35.3708C4.99244 35.3922 4.99244 35.4147 4.99244 35.4355V39.6737C4.99232 39.698 4.9973 39.722 5.00703 39.7442C5.01676 39.7664 5.03104 39.7863 5.04895 39.8026C5.06685 39.8189 5.08798 39.8313 5.11098 39.839C5.13397 39.8467 5.15831 39.8494 5.18243 39.8471H5.18705C5.36837 39.8442 5.38627 39.7188 5.38627 39.6639V37.886C5.38627 37.8663 5.38627 37.8438 5.38627 37.8282H5.43651H5.71543C5.92967 37.8282 6.14565 37.8282 6.35989 37.8247C6.69114 37.8244 7.01755 37.7452 7.31213 37.5936C7.47061 37.5154 7.60898 37.4018 7.71653 37.2615C7.82408 37.1213 7.89792 36.9581 7.93234 36.7847C7.95016 36.6982 7.95887 36.6101 7.95832 36.5218C7.9589 36.4536 7.95544 36.3889 7.95082 36.3305ZM7.54312 36.6373C7.50443 36.9297 7.3387 37.1441 7.03553 37.2885C6.75661 37.4232 6.44997 37.4474 6.1595 37.452C5.94815 37.4572 5.73737 37.4555 5.52429 37.452H5.38627C5.38627 37.2209 5.38627 36.9944 5.38627 36.7639V36.2329C5.38627 36.0041 5.38627 35.7751 5.38627 35.5459C5.52891 35.5493 5.67501 35.5459 5.81649 35.5459C6.07529 35.5378 6.33435 35.5465 6.59203 35.5719C6.72288 35.588 6.85175 35.6174 6.97662 35.6597C7.45361 35.8203 7.55409 36.1907 7.55409 36.4715C7.55439 36.527 7.55072 36.5824 7.54312 36.6373Z" fill="black"/>
<path d="M16.5019 38.7672C16.3524 38.5742 16.2034 38.3795 16.0538 38.1894L15.8702 37.9444C15.7876 37.8369 15.7033 37.7283 15.619 37.6162C15.6513 37.6162 15.6819 37.6064 15.7131 37.6017C16.0827 37.5336 16.3651 37.4134 16.6007 37.2215C16.8698 37.006 17.0124 36.6374 16.9755 36.2607C16.9619 36.0861 16.9045 35.9178 16.8086 35.7713C16.7127 35.6249 16.5814 35.505 16.4269 35.4228C16.23 35.3226 16.0186 35.2541 15.8003 35.22C15.4059 35.1623 15.0069 35.1623 14.6211 35.168C14.4438 35.168 14.2671 35.1727 14.0887 35.168C14.0606 35.1661 14.0325 35.1702 14.0061 35.1802C13.9798 35.1902 13.956 35.2057 13.9362 35.2258C13.918 35.2465 13.9043 35.2707 13.8958 35.297C13.8874 35.3232 13.8844 35.3509 13.8872 35.3783C13.8891 35.3976 13.8891 35.4169 13.8872 35.4361V39.5963C13.8872 39.6177 13.8872 39.6402 13.8872 39.6628C13.8856 39.6881 13.8893 39.7134 13.8981 39.7372C13.9068 39.7609 13.9204 39.7826 13.938 39.8009C13.9563 39.8182 13.9779 39.8316 14.0015 39.8406C14.0251 39.8495 14.0502 39.8537 14.0754 39.8529H14.087C14.1145 39.854 14.142 39.8495 14.1678 39.8396C14.1935 39.8296 14.2169 39.8145 14.2365 39.7951C14.2683 39.7581 14.2844 39.7103 14.2816 39.6616V39.5952V39.5565V37.6647H14.4843C14.6743 37.6647 14.8706 37.6682 15.0652 37.6595C15.097 37.6561 15.1292 37.662 15.1578 37.6765C15.1863 37.6909 15.2101 37.7133 15.2263 37.741C15.5018 38.1015 15.7795 38.4604 16.055 38.8192C16.2808 39.1081 16.5066 39.4005 16.7289 39.6922C16.768 39.7573 16.829 39.8063 16.901 39.8304C16.973 39.8546 17.0512 39.8523 17.1216 39.824L17.2786 39.772L16.5019 38.7672ZM14.9341 37.2805C14.8764 37.2805 14.8186 37.2805 14.7609 37.2805H14.6575C14.6038 37.2805 14.5489 37.2805 14.4935 37.2805C14.4236 37.2805 14.3555 37.2805 14.2775 37.2805C14.2775 37.0707 14.2775 36.8616 14.2775 36.6518V36.1711C14.2775 35.9637 14.2775 35.7557 14.2775 35.5476C14.4271 35.5511 14.5761 35.5476 14.7256 35.5476C15.006 35.5393 15.2867 35.5485 15.5659 35.5754C15.78 35.5968 15.9887 35.6555 16.1826 35.7487C16.2905 35.8023 16.3826 35.883 16.45 35.9828C16.5174 36.0827 16.5578 36.1983 16.5672 36.3184C16.5802 36.4419 16.5621 36.5667 16.5144 36.6814C16.4668 36.796 16.3913 36.8969 16.2946 36.9748C16.1127 37.1141 15.8904 37.2059 15.5901 37.2504C15.3727 37.2791 15.1532 37.2892 14.9341 37.2805Z" fill="black"/>
<path d="M49.2722 33.5669C49.0048 33.5668 48.7434 33.646 48.521 33.7946C48.2986 33.9431 48.1253 34.1543 48.0229 34.4015C47.9205 34.6487 47.8936 34.9206 47.9457 35.1831C47.9978 35.4455 48.1265 35.6866 48.3155 35.8758C48.5046 36.065 48.7455 36.1939 49.0077 36.2461C49.27 36.2984 49.5418 36.2716 49.7889 36.1693C50.0359 36.0669 50.2471 35.8935 50.3956 35.6711C50.5442 35.4486 50.6235 35.1871 50.6235 34.9195C50.6229 34.5611 50.4804 34.2175 50.2271 33.964C49.9738 33.7104 49.6305 33.5677 49.2722 33.5669ZM49.2722 36.0255C49.0536 36.0256 48.8399 35.9608 48.658 35.8394C48.4762 35.7179 48.3344 35.5452 48.2507 35.3432C48.1669 35.1411 48.145 34.9187 48.1875 34.7041C48.2301 34.4896 48.3354 34.2925 48.4899 34.1377C48.6445 33.983 48.8414 33.8776 49.0558 33.8349C49.2702 33.7922 49.4925 33.8141 49.6945 33.8977C49.8965 33.9814 50.0691 34.1232 50.1906 34.3051C50.3121 34.4869 50.3769 34.7008 50.3769 34.9195C50.3766 35.2126 50.2602 35.4937 50.0531 35.701C49.846 35.9083 49.5652 36.025 49.2722 36.0255Z" fill="black"/>
<path d="M49.4587 35.0865L49.4102 35.0235C49.5174 35.0031 49.6181 34.9569 49.7035 34.8889C49.7562 34.8441 49.797 34.787 49.8225 34.7228C49.8479 34.6585 49.8573 34.589 49.8496 34.5203C49.844 34.453 49.8216 34.3881 49.7845 34.3317C49.7474 34.2753 49.6967 34.2291 49.6371 34.1973C49.5646 34.1604 49.4866 34.1356 49.4061 34.1239C49.268 34.1056 49.1285 34.0991 48.9892 34.1042C48.9274 34.1042 48.8674 34.1042 48.8056 34.1042H48.8027C48.7878 34.1038 48.7729 34.1065 48.7591 34.1122C48.7453 34.118 48.7329 34.1266 48.7227 34.1375C48.7125 34.1485 48.7048 34.1615 48.7001 34.1757C48.6953 34.1899 48.6937 34.2049 48.6953 34.2198L48.7588 34.2163C48.7588 34.2163 48.7588 34.2198 48.7588 34.2215L48.6953 34.2475V35.7007C48.6942 35.7149 48.696 35.7291 48.7008 35.7424C48.7056 35.7558 48.7132 35.768 48.723 35.7782C48.7333 35.7883 48.7455 35.7962 48.7588 35.8016C48.7722 35.807 48.7865 35.8096 48.801 35.8094C48.8153 35.81 48.8296 35.8077 48.8431 35.8025C48.8565 35.7974 48.8687 35.7895 48.8789 35.7794C48.8892 35.7693 48.8972 35.7572 48.9026 35.7439C48.908 35.7306 48.9105 35.7163 48.9101 35.7019V35.0513H48.9407C49.0071 35.0513 49.0753 35.0513 49.1422 35.0513C49.155 35.0513 49.155 35.0513 49.1648 35.0628C49.2606 35.1876 49.3559 35.3124 49.4535 35.4378L49.6845 35.7412C49.7033 35.77 49.7315 35.7915 49.7643 35.802C49.7971 35.8125 49.8326 35.8115 49.8647 35.799L49.9732 35.7631L49.4587 35.0865ZM49.5494 34.7398C49.4825 34.7882 49.4044 34.8184 49.3224 34.8277C49.2494 34.8383 49.1755 34.8416 49.1018 34.8375H48.9153V34.3175H49.0308C49.1271 34.3139 49.2236 34.317 49.3195 34.3267C49.3896 34.333 49.4578 34.3526 49.5205 34.3845C49.5517 34.4004 49.5783 34.4239 49.5979 34.4529C49.6175 34.4819 49.6294 34.5154 49.6325 34.5503C49.6355 34.5862 49.6295 34.6224 49.6149 34.6554C49.6004 34.6884 49.5779 34.7172 49.5494 34.7393V34.7398Z" fill="black"/>
</svg>
