<svg width="118" height="38" viewBox="0 0 118 38" fill="none" xmlns="http://www.w3.org/2000/svg">
<g clip-path="url(#clip0_86_2298)">
<path d="M1.25081 27.8144C0.767007 27.8144 0.432673 27.5618 0.25174 27.053C0.0708066 26.5441 -0.0117933 25.907 6.6588e-06 25.1456C0.01574 24.3842 0.12194 23.5529 0.318607 22.6555C0.515273 21.7581 0.75914 20.9268 1.04627 20.1654C1.33341 19.404 1.64414 18.7669 1.97847 18.258C2.31281 17.7491 2.61567 17.4966 2.88707 17.4966C3.40234 17.4966 3.63834 17.7375 3.59114 18.2153C3.54394 18.6931 3.40234 19.3069 3.15847 20.0528C2.91461 20.8025 2.65107 21.6299 2.36394 22.5428C2.07681 23.4557 1.93127 24.3453 1.93127 25.2116L4.11034 21.9368C4.16934 21.8164 4.29914 21.5989 4.49581 21.2881C4.69247 20.9734 4.92061 20.6588 5.17627 20.3441C5.43194 20.0294 5.70727 19.7536 5.99441 19.5128C6.28154 19.2719 6.56081 19.1554 6.83614 19.1554C7.19801 19.1554 7.48514 19.3962 7.69754 19.8741L7.96894 22.3874C7.96894 22.6555 7.98467 23.075 8.01614 23.6422C8.04761 24.2094 8.11447 24.7804 8.22067 25.3476C8.32687 25.9147 8.49994 26.4159 8.74381 26.851C8.98767 27.286 9.31807 27.4997 9.74287 27.4997C10.1952 27.4997 10.6751 27.2239 11.1746 26.6684C11.6741 26.1167 12.1579 25.503 12.6299 24.827C13.098 24.155 13.5228 23.5412 13.9004 22.9857C14.278 22.4341 14.573 22.1544 14.7854 22.1544C15.2377 22.1544 15.4423 22.3253 15.399 22.671C15.3518 23.0168 15.2102 23.413 14.9663 23.8597C14.7225 24.3065 14.4511 24.726 14.1482 25.1145C13.8453 25.503 13.6644 25.7438 13.6015 25.8332C13.4481 26.0429 13.2435 26.2954 12.9879 26.5946C12.7283 26.8937 12.4569 27.185 12.1697 27.4686C11.8826 27.7522 11.5955 28.0164 11.3083 28.2533C11.0212 28.4942 10.7419 28.6418 10.4666 28.7001C10.1637 28.7894 9.87661 28.836 9.60521 28.836C8.90901 28.836 8.35441 28.5835 7.94534 28.0746C7.53627 27.5657 7.22554 27.0141 7.01314 26.4159C6.80074 25.7283 6.65521 25.1067 6.58047 24.5551C6.50574 24.0035 6.46641 23.5024 6.46641 23.0517V21.8863C6.46641 21.5561 6.41921 21.2881 6.32874 21.0783C5.96687 21.3192 5.57747 21.8047 5.16841 22.5351C4.75934 23.2693 4.33454 24.0229 3.89794 24.7998C3.45741 25.5768 3.02081 26.2721 2.58027 26.8859C2.13974 27.4997 1.69527 27.8066 1.23901 27.8066L1.25081 27.8144Z" fill="black"/>
<path d="M17.3775 30.3277C16.7718 30.3277 16.2329 30.1335 15.7648 29.745C15.2968 29.3566 14.9388 28.9526 14.6989 28.533C14.1521 27.5152 13.8414 26.311 13.7667 24.9203C13.692 23.5295 13.7746 22.267 14.0184 21.1288C14.0499 20.888 14.101 20.6044 14.1758 20.2781C14.2505 19.9479 14.3488 19.6293 14.4708 19.3147C14.5927 19 14.7421 18.732 14.9231 18.5066C15.104 18.2813 15.3007 18.1687 15.5131 18.1687C16.0283 18.1687 16.3312 18.2969 16.4217 18.5494C16.5122 18.8058 16.5122 19.1981 16.4217 19.7381C16.3312 20.2781 16.2014 20.9656 16.0362 21.8009C15.871 22.6399 15.7845 23.6267 15.7845 24.761C15.7845 25.0912 15.816 25.4874 15.875 25.9497C15.934 26.412 16.0323 26.8548 16.17 27.2744C16.3076 27.6939 16.4886 28.0435 16.7167 28.3271C16.9448 28.6107 17.2084 28.7544 17.5112 28.7544C17.8731 28.7544 18.2822 28.6263 18.7384 28.3737C19.1908 28.1212 19.6313 27.8144 20.0561 27.4531C20.4809 27.0957 20.8664 26.7344 21.2164 26.377C21.5626 26.0196 21.83 25.736 22.011 25.5263C22.07 25.468 22.2391 25.2582 22.5105 24.897C22.7819 24.5396 23.1005 24.1511 23.4663 23.7315C23.8282 23.312 24.2018 22.9391 24.5794 22.6089C24.957 22.2787 25.252 22.1155 25.4644 22.1155C25.6768 22.1155 25.783 22.2942 25.783 22.6555C25.783 22.8653 25.6375 23.1877 25.3503 23.6189C25.0632 24.054 24.721 24.5085 24.3277 24.9863C23.9344 25.4641 23.5489 25.9147 23.1674 26.3304C22.7898 26.7499 22.5105 27.0491 22.3256 27.2278C22.0542 27.4958 21.7435 27.8105 21.3934 28.1717C21.0434 28.5291 20.6579 28.8671 20.2331 29.1818C19.8083 29.4964 19.3638 29.7645 18.8918 29.9898C18.4238 30.2151 17.9164 30.3277 17.3696 30.3277H17.3775ZM15.9222 12.5165C15.9222 12.0076 16.0598 11.5686 16.3312 11.1918C16.6026 10.8188 16.9055 10.6324 17.2398 10.6324C17.6017 10.6324 17.9046 10.8577 18.1484 11.3044C18.5732 12.1435 18.6244 12.7923 18.3058 13.2545C17.9872 13.7168 17.6017 13.9499 17.1454 13.9499C16.8111 13.9499 16.524 13.8373 16.284 13.6119C16.0402 13.3866 15.9222 13.0215 15.9222 12.5126V12.5165Z" fill="black"/>
<path d="M30.7311 16.5993C30.7311 16.2691 30.7822 15.9855 30.8884 15.7485C30.9946 15.5077 31.093 15.2396 31.1834 14.9405L32.1392 9.87099C32.1982 9.63014 32.2769 9.28052 32.3674 8.81824C32.4578 8.35596 32.5798 7.8898 32.7292 7.42752C32.8787 6.96524 33.0557 6.5457 33.2524 6.17277C33.449 5.79984 33.685 5.5823 33.9564 5.52403C34.0154 5.52403 34.0626 5.51626 34.0941 5.50072C34.1256 5.48518 34.1531 5.47741 34.1846 5.47741C34.6094 5.47741 34.8414 5.71826 34.8886 6.19608C34.9358 6.67389 34.8965 7.2294 34.7746 7.85484C34.6526 8.48416 34.4953 9.10571 34.2986 9.7156C34.102 10.3294 33.9722 10.7684 33.9132 11.0403C33.3664 12.8661 32.9731 14.7268 32.7332 16.6265C32.4893 18.5261 32.3398 20.4335 32.2808 22.3486C32.2179 24.2638 32.214 26.1789 32.2572 28.0902C32.3044 30.0053 32.3398 31.9049 32.3713 33.789C32.3713 34.5077 32.4224 35.1176 32.5286 35.6303C32.6348 36.1392 32.7096 36.5432 32.7568 36.8424C32.804 37.1415 32.7804 37.359 32.6899 37.4911C32.5994 37.6271 32.3398 37.6931 31.919 37.6931C31.5846 37.6931 31.3211 37.3202 31.1244 36.5704C30.9278 35.8207 30.7822 34.8728 30.6918 33.723C30.6013 32.5731 30.5541 31.3067 30.5541 29.9315C30.5541 28.5563 30.5698 27.2394 30.6013 25.9847C30.6328 24.7299 30.6603 23.6306 30.6918 22.6866C30.7232 21.7426 30.739 21.1249 30.739 20.8258L30.4872 21.0744C30.4872 21.0744 30.4322 21.2026 30.3732 21.4124L28.7841 25.2272C28.6307 25.5845 28.4576 25.9769 28.261 26.3926C28.0643 26.8121 27.8362 27.2006 27.5805 27.558C27.3248 27.9154 27.0259 28.2222 26.6955 28.4786C26.3612 28.735 25.9836 28.8593 25.5588 28.8593C24.9216 28.8593 24.4928 28.5524 24.2647 27.9387C24.0366 27.3249 23.9697 26.5635 24.0602 25.6506C24.1506 24.7377 24.3709 23.7432 24.717 22.6671C25.0632 21.5911 25.5037 20.5966 26.0347 19.6837C26.5657 18.7708 27.1557 18.0094 27.8047 17.3956C28.4537 16.7818 29.1302 16.475 29.8264 16.475C30.0703 16.475 30.1962 16.4983 30.2119 16.541C30.2276 16.5876 30.4007 16.607 30.735 16.607L30.7311 16.5993ZM25.5548 26.8743C25.5548 27.1423 25.6138 27.2783 25.7358 27.2783C25.9796 27.2783 26.3415 26.816 26.8253 25.8876C27.3091 24.9591 27.7929 23.9297 28.2806 22.7915C28.7644 21.6532 29.1892 20.585 29.5511 19.5827C29.913 18.5805 30.0978 17.99 30.0978 17.8113C29.5826 17.8734 29.1814 18.0288 28.8942 18.2813C28.6071 18.5377 28.3396 18.8291 28.0997 19.1554C27.313 20.111 26.6916 21.2881 26.2353 22.6788C25.779 24.0695 25.5548 25.468 25.5548 26.8743Z" fill="black"/>
<path d="M34.1374 21.3541C34.2593 19.8002 34.4088 18.2658 34.5897 16.7547C34.7706 15.2435 35.0302 13.7246 35.3606 12.2018C35.4511 11.7823 35.5416 11.4326 35.632 11.149C35.7225 10.8655 35.813 10.543 35.9034 10.1856C36.1158 9.58741 36.2732 9.19117 36.3794 8.99693C36.4856 8.8027 36.6586 8.70558 36.9025 8.70558C36.993 8.70558 37.0992 8.71335 37.2211 8.72889C37.343 8.74443 37.4768 8.76774 37.6302 8.79493C37.7796 9.48252 37.7521 10.2983 37.5397 11.2384C37.3273 12.1824 37.1621 13.0409 37.0402 13.8178C36.7058 15.8806 36.4344 18.1531 36.222 20.6355C36.0096 23.1178 35.9034 25.4797 35.9034 27.725L36.0411 32.7479L36.403 31.8972C36.7058 30.9998 36.9694 30.2229 37.1975 29.5625C37.4256 28.9059 37.6656 28.2689 37.9252 27.6551C38.1808 27.0413 38.4719 26.4081 38.7866 25.7477C39.1052 25.0912 39.5064 24.3259 39.9902 23.4596C40.3245 22.8614 40.6392 22.3525 40.946 21.9329C41.2488 21.5134 41.7484 21.3036 42.4446 21.3036C42.6884 21.3036 42.8772 21.4551 43.011 21.7504C43.1486 22.0495 43.247 22.3952 43.306 22.7837C43.365 23.1722 43.4043 23.5606 43.42 23.9491C43.4358 24.3376 43.4436 24.6367 43.4436 24.8465C43.4436 25.7127 43.4672 26.4314 43.5105 26.9986C43.5577 27.5657 43.7308 28.1368 44.0336 28.7039C44.368 28.6146 44.6826 28.4514 44.9894 28.2106C45.2923 27.9697 45.5637 27.6939 45.8076 27.3793C46.0514 27.0646 46.2835 26.7383 46.5116 26.3926C46.7398 26.0507 46.9443 25.7438 47.1252 25.4719C47.3376 25.1417 47.5343 24.8154 47.7152 24.4852C47.8962 24.155 48.0771 23.8131 48.262 23.4518C48.5334 22.974 48.7536 22.6438 48.9188 22.4651C49.084 22.2864 49.261 22.1971 49.442 22.1971C49.5324 22.1971 49.6976 22.2282 49.9415 22.2864C50.091 22.8264 50.0634 23.2576 49.851 23.5878C49.6386 23.918 49.4105 24.3065 49.1706 24.7532C48.9582 25.1417 48.671 25.6428 48.3092 26.2566C47.9473 26.8704 47.5382 27.4686 47.082 28.0513C46.6257 28.634 46.1419 29.1274 45.6266 29.5314C45.1114 29.9354 44.5804 30.1374 44.0376 30.1374C43.0385 30.1374 42.3856 29.2556 42.0827 27.4919C41.9922 26.983 41.9293 26.3032 41.9018 25.4525C41.8703 24.6017 41.8546 23.8597 41.8546 23.2304C41.6422 23.3819 41.3865 23.7315 41.0836 24.2832C40.7808 24.8387 40.4779 25.433 40.175 26.0779C39.8722 26.7228 39.5929 27.3637 39.3333 28.0086C39.0737 28.6534 38.8731 29.139 38.7197 29.4653C38.3578 30.421 38.0628 31.3572 37.8347 32.2701C37.6066 33.183 37.3588 34.057 37.0834 34.8961C36.93 35.3739 36.757 35.6808 36.5603 35.8168C36.3636 35.9528 36.0529 36.0188 35.6281 36.0188C35.2348 36.0188 34.9162 35.5837 34.6723 34.7174C34.4284 33.8512 34.2475 32.8567 34.1256 31.734C34.0036 30.6113 33.9289 29.5275 33.8974 28.4825C33.866 27.4375 33.8502 26.7499 33.8502 26.4198L34.1216 21.3502L34.1374 21.3541Z" fill="black"/>
<path d="M51.7626 30.3277C51.1569 30.3277 50.618 30.1335 50.1499 29.745C49.6819 29.3566 49.3239 28.9526 49.084 28.533C48.5373 27.5152 48.2265 26.311 48.1518 24.9203C48.0771 23.5295 48.1597 22.267 48.4035 21.1288C48.435 20.888 48.4861 20.6044 48.5609 20.2781C48.6356 19.9479 48.7339 19.6293 48.8559 19.3147C48.9778 19 49.1273 18.732 49.3082 18.5066C49.4891 18.2813 49.6858 18.1687 49.8982 18.1687C50.4135 18.1687 50.7163 18.2969 50.8068 18.5494C50.8973 18.8058 50.8973 19.1981 50.8068 19.7381C50.7163 20.2781 50.5866 20.9656 50.4214 21.8009C50.2562 22.6399 50.1696 23.6267 50.1696 24.761C50.1696 25.0912 50.2011 25.4874 50.2601 25.9497C50.3191 26.412 50.4174 26.8548 50.5551 27.2744C50.6927 27.6939 50.8737 28.0435 51.1018 28.3271C51.3299 28.6107 51.5935 28.7544 51.8964 28.7544C52.2582 28.7544 52.6673 28.6263 53.1235 28.3737C53.5759 28.1212 54.0164 27.8144 54.4412 27.4531C54.866 27.0957 55.2515 26.7344 55.5976 26.377C55.9438 26.0196 56.2112 25.736 56.3921 25.5263C56.4511 25.468 56.6203 25.2582 56.8917 24.897C57.1631 24.5396 57.4817 24.1511 57.8475 23.7315C58.2094 23.312 58.583 22.9391 58.9606 22.6089C59.3382 22.2787 59.6332 22.1155 59.8456 22.1155C60.058 22.1155 60.1642 22.2942 60.1642 22.6555C60.1642 22.8653 60.0187 23.1877 59.7316 23.6189C59.4444 24.054 59.1022 24.5085 58.7089 24.9863C58.3155 25.4641 57.9301 25.9147 57.5525 26.3304C57.1749 26.7499 56.8956 27.0491 56.7107 27.2278C56.4393 27.4958 56.1286 27.8105 55.7785 28.1717C55.4285 28.5291 55.043 28.8671 54.6182 29.1818C54.1934 29.4964 53.7489 29.7645 53.2769 29.9898C52.8089 30.2151 52.3015 30.3277 51.7548 30.3277H51.7626ZM50.3112 12.5165C50.3112 12.0076 50.4489 11.5686 50.7203 11.1918C50.9917 10.8188 51.2945 10.6324 51.6289 10.6324C51.9907 10.6324 52.2936 10.8577 52.5375 11.3044C52.9623 12.1435 53.0134 12.7923 52.6948 13.2545C52.3762 13.7168 51.9908 13.9499 51.5345 13.9499C51.2002 13.9499 50.913 13.8373 50.6731 13.6119C50.4292 13.3866 50.3112 13.0215 50.3112 12.5126V12.5165Z" fill="black"/>
<path d="M58.9882 27.321C58.9882 26.1828 59.0354 24.7726 59.1259 23.0828C59.2164 21.393 59.354 19.6487 59.535 17.8579C59.7159 16.0632 59.9598 14.3345 60.2626 12.6757C60.5655 11.017 60.9274 9.66121 61.3522 8.61623C61.596 8.01799 61.8202 7.60621 62.0326 7.3809C62.245 7.15559 62.4417 7.04293 62.6226 7.04293C62.835 7.04293 63.0002 7.14782 63.1222 7.35759C63.2441 7.56737 63.2874 7.74606 63.2598 7.89757C63.2598 7.95972 63.2205 8.11511 63.1458 8.36761C63.071 8.624 63.016 8.8532 62.9884 9.06297C62.7446 9.99141 62.4889 11.2229 62.2175 12.7651C61.9461 14.3073 61.6944 15.9039 61.4662 17.5666C61.2381 19.2253 61.0572 20.8258 60.9195 22.368C60.7818 23.9102 60.715 25.1261 60.715 26.0235L61.714 24.4075C61.9579 23.8986 62.304 23.3897 62.7603 22.8808C63.2441 22.2243 63.783 21.7076 64.373 21.3347C64.963 20.9618 65.5608 20.7753 66.1666 20.7753C67.1342 20.7753 67.909 21.2842 68.4833 22.302C68.9986 23.2887 69.211 24.1705 69.1205 24.9475C69.03 25.7244 68.9828 26.4586 68.9828 27.1462C69.4076 26.9053 69.7616 26.7189 70.0488 26.5868C70.3359 26.4508 70.6073 26.311 70.8669 26.1595C71.1226 26.0119 71.3979 25.8448 71.685 25.6661C71.9722 25.4874 72.3144 25.2466 72.7077 24.9475C72.9201 24.7998 73.1915 24.5823 73.5258 24.2987C73.8602 24.0151 74.1906 23.7393 74.5249 23.4674C74.8592 23.1993 75.1542 22.9585 75.4099 22.7487C75.6656 22.5389 75.8426 22.4341 75.933 22.4341C76.3854 22.4341 76.6292 22.5312 76.6607 22.7254C76.6922 22.9196 76.6214 23.1372 76.4562 23.3742C76.291 23.615 76.0943 23.8364 75.8662 24.0462C75.638 24.256 75.4964 24.3764 75.4335 24.4036C75.0992 24.761 74.753 25.0756 74.3872 25.3476C74.0254 25.6156 73.6596 25.9147 73.2977 26.2449C72.9358 26.513 72.4874 26.8004 71.9564 27.0957C71.4254 27.3948 70.9102 27.6939 70.4106 27.993C69.9111 28.2922 69.4706 28.5524 69.093 28.7778C68.7154 29.0031 68.4951 29.1585 68.4361 29.2478C68.3456 29.3993 68.2001 29.7412 68.0034 30.2811C67.8068 30.8211 67.5275 31.431 67.1617 32.1225C66.7998 32.8101 66.3278 33.5054 65.7536 34.2085C65.1793 34.9117 64.4674 35.5177 63.6178 36.0266C62.5558 36.6831 61.482 37.0133 60.3924 37.0133C59.7552 37.0133 59.2124 36.8579 58.7562 36.5432C58.2999 36.2286 58.0757 35.7275 58.0757 35.0399C58.0757 34.3523 58.3864 33.7307 59.0079 33.0898C59.6294 32.4449 60.361 31.8389 61.2106 31.2717C62.0562 30.7046 62.9294 30.1879 63.8223 29.7256C64.7152 29.2633 65.435 28.8943 65.9817 28.6263C66.4065 28.4165 66.67 28.2844 66.7762 28.2222C66.8824 28.164 66.9965 27.8804 67.1184 27.3715C67.2679 26.7422 67.3623 26.1245 67.3898 25.5107C67.4213 24.897 67.3898 24.3531 67.2994 23.8714C67.2089 23.3936 67.0516 23.0051 66.8234 22.706C66.5953 22.4069 66.316 22.2592 65.9817 22.2592C65.4074 22.2592 64.6798 22.7526 63.8026 23.7393C63.2284 24.4269 62.7485 25.1611 62.3709 25.938C61.9933 26.715 61.659 27.4414 61.3718 28.1135C61.0847 28.7855 60.833 29.3488 60.6206 29.7955C60.4082 30.2423 60.1958 30.4676 59.9834 30.4676C59.6805 30.4676 59.4524 30.3627 59.3029 30.1529C59.1495 29.9432 59.0512 29.6829 59.0079 29.3682C58.9607 29.0536 58.945 28.7117 58.9607 28.3349C58.9764 27.962 58.9843 27.624 58.9843 27.3249L58.9882 27.321ZM60.4396 35.6653C61.1358 35.6653 61.773 35.4711 62.3473 35.0826C62.9216 34.6941 63.4526 34.2241 63.9364 33.6686C64.4202 33.1131 64.8528 32.5187 65.2304 31.8739C65.608 31.229 65.9345 30.6541 66.2059 30.1452C66.0525 30.2034 65.7968 30.3161 65.435 30.4831C65.0731 30.6463 64.6837 30.8405 64.2746 31.0658C63.8656 31.2911 63.4801 31.5087 63.1182 31.7146C62.7564 31.9244 62.4968 32.072 62.3473 32.1613C61.954 32.4022 61.5213 32.7207 61.0532 33.1247C60.5852 33.5287 60.2036 33.9172 59.9165 34.2901C59.6294 34.6631 59.4996 34.9855 59.531 35.2535C59.5625 35.5216 59.8654 35.6575 60.4396 35.6575V35.6653Z" fill="black"/>
<path d="M74.4777 21.3541C74.5996 19.8002 74.7491 18.2658 74.93 16.7547C75.111 15.2435 75.3706 13.7246 75.701 12.2018C75.7914 11.7823 75.8819 11.4326 75.9724 11.149C76.0628 10.8655 76.1533 10.543 76.2438 10.1856C76.4562 9.58741 76.6135 9.19117 76.7197 8.99693C76.8259 8.8027 76.999 8.70558 77.2428 8.70558C77.3333 8.70558 77.4395 8.71335 77.5614 8.72889C77.6834 8.74443 77.8171 8.76774 77.9705 8.79493C78.12 9.48252 78.0924 10.2983 77.88 11.2384C77.6676 12.1824 77.5024 13.0409 77.3805 13.8178C77.0462 15.8806 76.7748 18.1531 76.5624 20.6355C76.35 23.1178 76.2438 25.4797 76.2438 27.725L76.3814 32.7479L76.7433 31.8972C77.0462 30.9998 77.3097 30.2229 77.5378 29.5625C77.766 28.9059 78.0059 28.2689 78.2655 27.6551C78.5212 27.0413 78.8122 26.4081 79.1269 25.7477C79.4455 25.0912 79.8467 24.3259 80.3305 23.4596C80.6648 22.8614 80.9795 22.3525 81.2863 21.9329C81.5892 21.5134 82.0887 21.3036 82.7849 21.3036C83.0288 21.3036 83.2176 21.4551 83.3513 21.7504C83.489 22.0495 83.5873 22.3952 83.6463 22.7837C83.7053 23.1722 83.7446 23.5606 83.7604 23.9491C83.7761 24.3376 83.784 24.6367 83.784 24.8465C83.784 25.7127 83.8076 26.4314 83.8508 26.9986C83.898 27.5657 84.0711 28.1368 84.374 28.7039C84.7083 28.6146 85.023 28.4514 85.3298 28.2106C85.6326 27.9697 85.904 27.6939 86.1479 27.3793C86.3918 27.0646 86.6238 26.7383 86.852 26.3926C87.0801 26.0507 87.2846 25.7438 87.4656 25.4719C87.678 25.1417 87.8746 24.8154 88.0556 24.4852C88.2365 24.155 88.4174 23.8131 88.6023 23.4518C88.8737 22.974 89.094 22.6438 89.2592 22.4651C89.4244 22.2864 89.6014 22.1971 89.7823 22.1971C89.8728 22.1971 90.038 22.2282 90.2818 22.2864C90.4313 22.8264 90.4038 23.2576 90.1914 23.5878C89.979 23.918 89.7508 24.3065 89.5109 24.7532C89.2985 25.1417 89.0114 25.6428 88.6495 26.2566C88.2876 26.8704 87.8786 27.4686 87.4223 28.0513C86.966 28.634 86.4822 29.1274 85.967 29.5314C85.4517 29.9354 84.9207 30.1374 84.3779 30.1374C83.3788 30.1374 82.7259 29.2556 82.423 27.4919C82.3326 26.983 82.2696 26.3032 82.2421 25.4525C82.2106 24.6017 82.1949 23.8597 82.1949 23.2304C81.9825 23.3819 81.7268 23.7315 81.424 24.2832C81.1211 24.8387 80.8182 25.433 80.5154 26.0779C80.2125 26.7228 79.9332 27.3637 79.6736 28.0086C79.414 28.6534 79.2134 29.139 79.06 29.4653C78.6982 30.421 78.4032 31.3572 78.175 32.2701C77.9469 33.183 77.6991 34.057 77.4238 34.8961C77.2704 35.3739 77.0973 35.6808 76.9006 35.8168C76.704 35.9528 76.3932 36.0188 75.9684 36.0188C75.5751 36.0188 75.2565 35.5837 75.0126 34.7174C74.7688 33.8512 74.5878 32.8567 74.4659 31.734C74.344 30.6113 74.2692 29.5275 74.2378 28.4825C74.2063 27.4375 74.1906 26.7499 74.1906 26.4198L74.462 21.3502L74.4777 21.3541Z" fill="black"/>
<path d="M88.3308 25.6195C88.3308 24.9902 88.4881 24.2055 88.8067 23.2654C89.1253 22.3214 89.5501 21.4124 90.0772 20.5306C90.6082 19.6487 91.2297 18.899 91.9416 18.2891C92.6535 17.6753 93.4009 17.3684 94.1915 17.3684C94.7382 17.3684 95.2063 17.5044 95.5996 17.7724C95.9929 18.0405 96.2958 18.3318 96.5082 18.6465C96.7206 18.9612 96.8189 19.2525 96.8032 19.5205C96.7875 19.7886 96.6301 19.9246 96.3273 19.9246C95.9929 19.9246 95.6743 19.7536 95.3715 19.4079C95.0686 19.066 94.7067 18.8912 94.2819 18.8912C93.9476 18.8912 93.5464 19.0855 93.0783 19.4739C92.6103 19.8624 92.0399 20.6238 91.3752 21.762C91.0723 22.2398 90.7931 22.8614 90.5335 23.6228C90.2739 24.3842 90.148 25.1417 90.148 25.8875C90.207 25.8293 90.2306 25.8137 90.2149 25.8409C90.1991 25.872 90.2542 25.8099 90.3722 25.6622L90.7341 25.1223C90.9779 24.7649 91.2572 24.2909 91.5758 23.7082C91.8944 23.1255 92.213 22.5584 92.5316 22.0029C92.8502 21.4512 93.1531 20.9657 93.4402 20.5461C93.7273 20.1266 93.9476 19.9168 94.0971 19.9168C94.4904 19.9168 94.7539 20.0294 94.8916 20.2548C95.0293 20.4801 95.1119 20.7714 95.1433 21.1288C95.1748 21.4862 95.1905 21.8902 95.1905 22.3408C95.1905 22.7915 95.2377 23.2227 95.3282 23.6422C95.5091 24.4502 95.7884 25.0407 96.1699 25.4136C96.5475 25.7865 96.9802 25.973 97.464 25.973C98.3097 25.973 99.2497 25.4641 100.28 24.4463C100.705 24.0579 101 23.7354 101.165 23.4829C101.33 23.2304 101.582 22.9391 101.917 22.6089C102.129 22.3098 102.4 22.1621 102.735 22.1621C102.916 22.1621 103.053 22.2282 103.144 22.3641C103.234 22.5001 103.25 22.7099 103.191 22.9935C103.128 23.277 102.955 23.6305 102.668 24.0462C102.381 24.4658 101.948 24.9436 101.374 25.4835L100.013 26.5596C99.1357 27.1578 98.2861 27.457 97.4679 27.457C96.8937 27.457 96.3784 27.321 95.9221 27.053C95.4659 26.7849 95.0804 26.4469 94.7657 26.0429C94.4471 25.6389 94.1993 25.1844 94.0145 24.6755C93.8335 24.1666 93.7431 23.6733 93.7431 23.1955C93.5307 23.347 93.2868 23.681 93.0154 24.2055C92.744 24.7299 92.449 25.266 92.1304 25.8215C91.8118 26.377 91.4853 26.8743 91.1549 27.3249C90.8206 27.7716 90.4902 27.9969 90.1559 27.9969C89.3063 27.9969 88.7949 27.8027 88.6101 27.4142C88.4291 27.0258 88.3387 26.4275 88.3387 25.6195H88.3308Z" fill="black"/>
<path d="M88.7399 10.139C88.7399 9.80883 89.0035 9.46698 89.5345 9.1057C90.0655 8.74831 90.7381 8.38704 91.5562 8.02965C92.3743 7.67225 93.2829 7.32652 94.282 6.99632C95.2811 6.66612 96.2644 6.36312 97.2359 6.07565C98.2035 5.79207 99.1003 5.54345 99.9145 5.33367C100.733 5.1239 101.354 4.96074 101.775 4.84032C102.259 4.71989 102.621 4.63831 102.865 4.5917C103.108 4.54508 103.289 4.48681 103.411 4.413C103.533 4.33919 103.616 4.21877 103.663 4.05561C103.71 3.89245 103.777 3.61276 103.868 3.22429C104.111 1.99673 104.391 1.15375 104.709 0.687588C105.028 0.225311 105.339 -0.00777054 105.641 -0.00777054C105.885 -0.00777054 106.09 0.120424 106.255 0.372929C106.42 0.629318 106.503 0.932324 106.503 1.2936C106.503 1.56164 106.487 1.6743 106.456 1.63157C106.424 1.58495 106.424 1.68595 106.456 1.92292C106.456 1.98507 106.464 2.05888 106.479 2.14823C106.495 2.23758 106.503 2.358 106.503 2.50562C106.503 2.80474 106.456 2.97567 106.365 3.02229C106.275 3.0689 106.169 3.09609 106.047 3.11163C105.925 3.12717 105.818 3.17767 105.728 3.26702C105.638 3.35637 105.59 3.58168 105.59 3.93907C105.952 3.93907 106.353 3.89245 106.794 3.80311C107.234 3.71376 107.62 3.63995 107.95 3.5778C109.284 3.33694 110.613 3.12329 111.947 2.92905C113.28 2.73482 114.641 2.6377 116.033 2.6377C116.58 2.6377 117.009 2.72705 117.327 2.90574C117.646 3.08444 117.851 3.28644 117.941 3.51176C118.031 3.73707 118 3.94684 117.851 4.14107C117.697 4.33531 117.41 4.43243 116.989 4.43243C116.926 4.19158 116.891 4.0828 116.875 4.09446C116.859 4.11 116.718 4.08669 116.442 4.02842C116.32 3.99734 116.081 3.9818 115.715 3.9818C115.078 3.9818 114.232 4.04784 113.17 4.18381C112.108 4.31977 111.034 4.47516 109.945 4.65385C108.855 4.83255 107.864 5.00736 106.971 5.17052C106.078 5.33367 105.496 5.44633 105.221 5.50848L104.312 14.7074C104.281 14.9172 104.273 15.1425 104.288 15.3795C104.304 15.6203 104.312 15.8573 104.312 16.0981C104.312 16.3973 104.288 16.5915 104.245 16.6808C104.198 16.7702 104.178 16.98 104.178 17.3102C104.178 17.9667 104.194 18.7242 104.225 19.5749C104.257 20.4257 104.241 21.0938 104.178 21.5717C104.147 21.9019 104.115 22.6322 104.088 23.7704C104.056 24.9086 104.041 26.1401 104.041 27.4725V31.3067C104.041 32.5342 104.056 33.385 104.088 33.8628C104.088 34.1309 104.119 34.496 104.178 34.9622C104.237 35.4245 104.277 35.8828 104.292 36.3296C104.308 36.7763 104.269 37.1648 104.178 37.495C104.088 37.8252 103.891 37.9883 103.588 37.9883C103.285 37.9883 103.049 37.899 102.884 37.7203C102.719 37.5416 102.597 37.3163 102.522 37.0483C102.448 36.7802 102.4 36.4889 102.385 36.1742C102.369 35.8595 102.361 35.5682 102.361 35.3001C102.298 34.4921 102.255 33.5715 102.223 32.542C102.192 31.5087 102.176 30.4559 102.176 29.3799C102.176 28.3038 102.184 27.2472 102.2 26.2177C102.216 25.1844 102.223 24.2676 102.223 23.4596L102.361 21.3502V19.4001C102.361 18.5183 102.377 17.6054 102.408 16.6653C102.44 15.7213 102.467 14.8395 102.499 14.0198C102.53 13.1963 102.573 12.6213 102.636 12.2911C102.695 11.992 102.735 11.6346 102.75 11.2151C102.766 10.7955 102.79 10.4382 102.817 10.139L103.226 5.96688C103.073 6.02903 102.802 6.09507 102.408 6.16888C102.015 6.24269 101.696 6.31261 101.452 6.37088C99.9381 6.72828 98.5143 7.11286 97.1809 7.51687C95.8475 7.92087 94.4708 8.39092 93.0469 8.93089C92.7755 9.05132 92.5238 9.17951 92.2957 9.31159C92.0675 9.44367 91.8197 9.57187 91.5444 9.69229C91.273 9.81272 91.0763 9.8943 90.9544 9.94091C90.8325 9.98753 90.7577 10.038 90.7263 10.0963C90.6948 10.1585 90.6673 10.24 90.6358 10.3449C90.6043 10.4498 90.5453 10.6052 90.4549 10.815C90.152 10.8771 89.8963 10.9043 89.6839 10.9043C89.4401 10.9043 89.2237 10.8577 89.0271 10.7683C88.8304 10.679 88.7321 10.4692 88.7321 10.139H88.7399Z" fill="black"/>
</g>
<defs>
<clipPath id="clip0_86_2298">
<rect width="118" height="38" fill="white"/>
</clipPath>
</defs>
</svg>
