<svg width="1136" height="488" viewBox="0 0 1136 488" fill="none" xmlns="http://www.w3.org/2000/svg">
<mask id="mask0_75_2169" style="mask-type:alpha" maskUnits="userSpaceOnUse" x="0" y="0" width="1136" height="488">
<rect width="1136" height="488" rx="24" fill="#E2D6FF"/>
</mask>
<g mask="url(#mask0_75_2169)">
<path fill-rule="evenodd" clip-rule="evenodd" d="M1242.08 422.183C1180.33 365.655 1100.67 322.592 1035.96 321.262C1005.25 320.63 974.996 323.238 944.417 326.498C936.881 327.301 929.342 328.142 921.765 328.986C898.361 331.596 874.601 334.245 849.488 335.956C783.551 340.449 709.374 338.357 616.875 310.882C572.306 297.644 548.65 277.931 534.912 256.719C520.822 234.964 515.981 209.944 512.287 183.294C511.841 180.078 511.411 176.799 510.975 173.479C507.989 150.714 504.746 125.996 494.431 105.868C488.224 93.7536 479.384 82.9479 466.576 74.5464C453.888 66.2233 438.044 60.7415 418.458 58.0761C351.885 49.0163 307.743 58.847 261.935 69.0486C256.202 70.3253 250.443 71.6077 244.612 72.8597C192.953 83.9495 132.639 93.5215 26.3121 77.6538C-55.5038 65.444 -97.8321 24.1967 -118.755 -21.4553C-140.143 -68.1222 -139.741 -120.849 -132.619 -154.932L-161.985 -161.068C-170.054 -122.448 -170.742 -62.8822 -146.027 -8.95612C-120.847 45.9849 -69.8796 93.6308 21.884 107.325C132.532 123.838 196.557 113.859 250.908 102.191C256.908 100.903 262.753 99.606 268.498 98.3306C314.052 88.2183 353.357 79.4931 414.413 87.8021C430.742 90.0243 442.05 94.3368 450.121 99.6311C458.073 104.847 463.599 111.482 467.732 119.549C475.493 134.694 478.029 153.623 481.176 177.123C481.623 180.46 482.083 183.889 482.571 187.413C486.308 214.374 491.746 245.256 509.732 273.027C528.069 301.34 558.285 324.775 608.333 339.641C705.067 368.373 782.97 370.558 851.528 365.887C877.347 364.127 901.998 361.378 925.54 358.753C933.003 357.921 940.355 357.101 947.597 356.329C977.918 353.097 1006.62 350.665 1035.35 351.255C1089.53 352.369 1162.44 389.951 1221.82 444.31C1251.19 471.203 1276.46 501.51 1293.88 532.166C1311.36 562.938 1320.41 593.108 1318.89 620.12L1348.85 621.803C1350.8 587.109 1339.16 551.143 1319.96 517.345C1300.69 483.432 1273.26 450.735 1242.08 422.183Z" fill="#D4C3FA"/>
</g>
</svg>
